mtllib Test.mtl
o Default
v -2 0 0
v 0 0 -2
v -2 0 -2
v 0 0 0
v 2 0 -2
v 2 0 0
v 10 -2 0
v 12 0 0
v 10 0 0
v 12 -2 0
v -4 0 0
v -4 0 -2
v -4 -2 0
v -2 -2 0
v 0 -2 0
v 2 -2 0
v 4 0 0
v 4 -2 0
v -4 -2 -2
v 4 0 -2
v 4 -2 -2
v 6 0 0
v 8 0 -2
v 6 0 -2
v 8 0 0
v 8 -2 0
v 6 -2 0
v 11.5 -9 -1.9375
v 14.5 -8 -1.9375
v 11.5 -8 -1.9375
v 14.5 -9 -1.9375
v 14.5 -7 -1.9375
v 11.5 -7 -1.9375
v 12 -2 -2
v 10 0 -2
v 12 0 -2
v 10 -2 -2
v 14 -2 -2
v 14 0 -2
v 16 -2 -2
v 16 0 -2
v 18 0 -2
v 18 -2 -2
v 18 0 0
v 18 -2 0
v 16 0 0
v 14 0 0
v 16 -2 0
v 14 -2 0
v 12 -4 -2
v 14 -4 -2
v 16 -4 -2
v 18 -4 -2
v 10 -4 -2
v 8 -4 -2
v 8 -2 -2
v 18 -4 0
v 8 -4 0
v 6 -4 0
v 4 -4 0
v 2 -4 0
v 0 -4 0
v -2 -4 0
v -4 -4 0
v -4 -6 0
v -2 -6 0
v 0 -6 0
v 2 -6 0
v 4 -6 0
v 6 -6 0
v 8 -6 0
v 6 -8 0
v 8 -8 0
v 4 -8 0
v 2 -8 0
v 0 -8 0
v -2 -8 0
v -4 -8 0
v -4 -10 0
v -2 -10 0
v 0 -10 0
v 2 -10 0
v 4 -10 0
v 6 -10 0
v 8 -10 0
v 8 -6 -2
v 10 -6 -2
v 12 -6 -2
v 14 -6 -2
v 16 -6 -2
v 18 -6 -2
v 16 -8 -2
v 18 -8 -2
v 14 -8 -2
v 12 -8 -2
v 10 -8 -2
v 8 -8 -2
v 8 -10 -2
v 10 -10 -2
v 12 -10 -2
v 14 -10 -2
v 16 -10 -2
v 18 -10 -2
v 18 -6 0
v 18 -8 0
v 18 -10 0
v 10 -10 0
v 12 -10 0
v 14 -10 0
v 16 -10 0
v 11.5 0 -1.9375
v 14.5 1 -1.9375
v 11.5 1 -1.9375
v 14.5 0 -1.9375
v 11.5 -1 -1.9375
v 14.5 -1 -1.9375
v 11.5 -2 -1.9375
v 14.5 -2 -1.9375
v 11.5 -4 -1.9375
v 14.5 -3 -1.9375
v 11.5 -3 -1.9375
v 14.5 -4 -1.9375
v 11.5 -5 -1.9375
v 14.5 -5 -1.9375
v 11.5 -6 -1.9375
v 14.5 -6 -1.9375
vt 0.1666666716337204 0.5111111402511597
vt 0.2083333283662796 0.5555555820465088
vt 0.1666666716337204 0.5555555820465088
vt 0.2083333283662796 0.5111111402511597
vt 0.2083333283662796 0.7333333492279053
vt 0.1666666716337204 0.7777777910232544
vt 0.2083333283662796 0.7777777910232544
vt 0.1666666716337204 0.7333333492279053
vt 0.25 0.0416666679084301
vt 0.3125 0.0625
vt 0.25 0.0625
vt 0.3125 0.0416666679084301
vt 0.25 0.1041666641831398
vt 0.3125 0.125
vt 0.25 0.125
vt 0.3125 0.1041666641831398
vt 0.0416666679084301 0.3777777850627899
vt 0.0833333358168602 0.42222222685813904
vt 0.0416666679084301 0.42222222685813904
vt 0.0833333358168602 0.3777777850627899
vt 0.0416666679084301 0.7333333492279053
vt 0.0833333358168602 0.7777777910232544
vt 0.0416666679084301 0.7777777910232544
vt 0.0833333358168602 0.7333333492279053
vt 0.0416666679084301 0.5111111402511597
vt 0.0833333358168602 0.5555555820465088
vt 0.0416666679084301 0.5555555820465088
vt 0.0833333358168602 0.5111111402511597
vt 0.3125 0.1458333283662796
vt 0.25 0.1458333283662796
vn 0 1 0
vn 0 0 1
vn -1 0 0
vn 1 0 0
vn 0 0 -1
g Scene
usemtl TileA4-Train
f 1/1/1 2/2/1 3/3/1
f 1/1/1 4/4/1 2/2/1
f 4/1/1 5/2/1 2/3/1
f 4/1/1 6/4/1 5/2/1
f 7/5/2 8/6/2 9/7/2
f 7/5/2 10/8/2 8/6/2
f 11/1/1 3/2/1 12/3/1
f 11/1/1 1/4/1 3/2/1
f 13/8/2 1/7/2 11/6/2
f 13/8/2 14/5/2 1/7/2
f 14/8/2 4/7/2 1/6/2
f 14/8/2 15/5/2 4/7/2
f 16/8/2 17/7/2 6/6/2
f 16/8/2 18/5/2 17/7/2
f 15/8/2 6/7/2 4/6/2
f 15/8/2 16/5/2 6/7/2
f 19/5/3 11/6/3 12/7/3
f 19/5/3 13/8/3 11/6/3
f 18/5/4 20/6/4 17/7/4
f 18/5/4 21/8/4 20/6/4
f 6/1/1 20/2/1 5/3/1
f 6/1/1 17/4/1 20/2/1
f 22/4/1 23/3/1 24/2/1
f 22/4/1 25/1/1 23/3/1
f 26/5/2 9/6/2 25/7/2
f 26/5/2 7/8/2 9/6/2
f 17/4/1 24/3/1 20/2/1
f 17/4/1 22/1/1 24/3/1
f 18/5/2 22/6/2 17/7/2
f 18/5/2 27/8/2 22/6/2
f 27/5/2 25/6/2 22/7/2
f 27/5/2 26/8/2 25/6/2
usemtl steampunk_air_E-Photoroom
f 28/9/2 29/10/2 30/11/2
f 28/9/2 31/12/2 29/10/2
f 30/13/2 32/14/2 33/15/2
f 30/13/2 29/16/2 32/14/2
usemtl TileA4-Train
f 34/5/5 35/6/5 36/7/5
f 34/5/5 37/8/5 35/6/5
f 38/5/5 36/6/5 39/7/5
f 38/5/5 34/8/5 36/6/5
f 40/5/5 39/6/5 41/7/5
f 40/5/5 38/8/5 39/6/5
f 34/5/2 39/6/2 36/7/2
f 34/5/2 38/8/2 39/6/2
f 38/5/2 41/6/2 39/7/2
f 38/5/2 40/8/2 41/6/2
f 40/5/2 42/6/2 41/7/2
f 40/5/2 43/8/2 42/6/2
f 10/5/4 36/6/4 8/7/4
f 10/5/4 34/8/4 36/6/4
f 43/5/3 44/6/3 42/7/3
f 43/5/3 45/8/3 44/6/3
f 46/4/1 42/3/1 41/2/1
f 46/4/1 44/1/1 42/3/1
f 47/4/1 41/3/1 39/2/1
f 47/4/1 46/1/1 41/3/1
f 48/5/2 44/6/2 46/7/2
f 48/5/2 45/8/2 44/6/2
f 49/5/2 46/6/2 47/7/2
f 49/5/2 48/8/2 46/6/2
f 50/17/2 38/18/2 34/19/2
f 50/17/2 51/20/2 38/18/2
f 51/17/2 40/18/2 38/19/2
f 51/17/2 52/20/2 40/18/2
f 52/17/2 43/18/2 40/19/2
f 52/17/2 53/20/2 43/18/2
f 54/17/2 34/18/2 37/19/2
f 54/17/2 50/20/2 34/18/2
f 55/17/2 37/18/2 56/19/2
f 55/17/2 54/20/2 37/18/2
f 53/8/3 45/7/3 43/6/3
f 53/8/3 57/5/3 45/7/3
f 58/8/4 56/7/4 26/6/4
f 58/8/4 55/5/4 56/7/4
f 59/8/2 26/7/2 27/6/2
f 59/8/2 58/5/2 26/7/2
f 60/8/2 27/7/2 18/6/2
f 60/8/2 59/5/2 27/7/2
f 61/8/2 18/7/2 16/6/2
f 61/8/2 60/5/2 18/7/2
f 62/8/2 16/7/2 15/6/2
f 62/8/2 61/5/2 16/7/2
f 63/8/2 15/7/2 14/6/2
f 63/8/2 62/5/2 15/7/2
f 64/8/2 14/7/2 13/6/2
f 64/8/2 63/5/2 14/7/2
f 65/8/2 63/7/2 64/6/2
f 65/8/2 66/5/2 63/7/2
f 66/8/2 62/7/2 63/6/2
f 66/8/2 67/5/2 62/7/2
f 67/8/2 61/7/2 62/6/2
f 67/8/2 68/5/2 61/7/2
f 68/8/2 60/7/2 61/6/2
f 68/8/2 69/5/2 60/7/2
f 69/8/2 59/7/2 60/6/2
f 69/8/2 70/5/2 59/7/2
f 70/8/2 58/7/2 59/6/2
f 70/8/2 71/5/2 58/7/2
f 72/8/2 71/7/2 70/6/2
f 72/8/2 73/5/2 71/7/2
f 74/8/2 70/7/2 69/6/2
f 74/8/2 72/5/2 70/7/2
f 75/8/2 69/7/2 68/6/2
f 75/8/2 74/5/2 69/7/2
f 76/8/2 68/7/2 67/6/2
f 76/8/2 75/5/2 68/7/2
f 77/8/2 67/7/2 66/6/2
f 77/8/2 76/5/2 67/7/2
f 78/8/2 66/7/2 65/6/2
f 78/8/2 77/5/2 66/7/2
f 79/8/2 77/7/2 78/6/2
f 79/8/2 80/5/2 77/7/2
f 80/8/2 76/7/2 77/6/2
f 80/8/2 81/5/2 76/7/2
f 81/8/2 75/7/2 76/6/2
f 81/8/2 82/5/2 75/7/2
f 82/8/2 74/7/2 75/6/2
f 82/8/2 83/5/2 74/7/2
f 83/8/2 72/7/2 74/6/2
f 83/8/2 84/5/2 72/7/2
f 84/8/2 73/7/2 72/6/2
f 84/8/2 85/5/2 73/7/2
f 86/21/2 54/22/2 55/23/2
f 86/21/2 87/24/2 54/22/2
f 87/21/2 50/22/2 54/23/2
f 87/21/2 88/24/2 50/22/2
f 88/21/2 51/22/2 50/23/2
f 88/21/2 89/24/2 51/22/2
f 89/21/2 52/22/2 51/23/2
f 89/21/2 90/24/2 52/22/2
f 90/21/2 53/22/2 52/23/2
f 90/21/2 91/24/2 53/22/2
f 92/21/2 91/22/2 90/23/2
f 92/21/2 93/24/2 91/22/2
f 94/21/2 90/22/2 89/23/2
f 94/21/2 92/24/2 90/22/2
f 95/21/2 89/22/2 88/23/2
f 95/21/2 94/24/2 89/22/2
f 96/21/2 88/22/2 87/23/2
f 96/21/2 95/24/2 88/22/2
f 97/21/2 87/22/2 86/23/2
f 97/21/2 96/24/2 87/22/2
f 98/21/2 96/22/2 97/23/2
f 98/21/2 99/24/2 96/22/2
f 99/21/2 95/22/2 96/23/2
f 99/21/2 100/24/2 95/22/2
f 100/21/2 94/22/2 95/23/2
f 100/21/2 101/24/2 94/22/2
f 101/21/2 92/22/2 94/23/2
f 101/21/2 102/24/2 92/22/2
f 102/21/2 93/22/2 92/23/2
f 102/21/2 103/24/2 93/22/2
f 71/8/4 55/7/4 58/6/4
f 71/8/4 86/5/4 55/7/4
f 73/8/4 86/7/4 71/6/4
f 73/8/4 97/5/4 86/7/4
f 85/8/4 97/7/4 73/6/4
f 85/8/4 98/5/4 97/7/4
f 91/8/3 57/7/3 53/6/3
f 91/8/3 104/5/3 57/7/3
f 93/8/3 104/7/3 91/6/3
f 93/8/3 105/5/3 104/7/3
f 103/8/3 105/7/3 93/6/3
f 103/8/3 106/5/3 105/7/3
f 85/25/1 99/26/1 98/27/1
f 85/25/1 107/28/1 99/26/1
f 107/25/1 100/26/1 99/27/1
f 107/25/1 108/28/1 100/26/1
f 108/25/1 101/26/1 100/27/1
f 108/25/1 109/28/1 101/26/1
f 109/25/1 102/26/1 101/27/1
f 109/25/1 110/28/1 102/26/1
f 110/25/1 103/26/1 102/27/1
f 110/25/1 106/28/1 103/26/1
usemtl steampunk_air_E-Photoroom
f 111/15/2 112/29/2 113/30/2
f 111/15/2 114/14/2 112/29/2
f 115/13/2 114/14/2 111/15/2
f 115/13/2 116/16/2 114/14/2
f 117/13/2 116/14/2 115/15/2
f 117/13/2 118/16/2 116/14/2
f 119/13/2 120/14/2 121/15/2
f 119/13/2 122/16/2 120/14/2
f 121/13/2 118/14/2 117/15/2
f 121/13/2 120/16/2 118/14/2
f 123/13/2 122/14/2 119/15/2
f 123/13/2 124/16/2 122/14/2
f 125/13/2 124/14/2 123/15/2
f 125/13/2 126/16/2 124/14/2
f 33/13/2 126/14/2 125/15/2
f 33/13/2 32/16/2 126/14/2
usemtl TileA4-Train
f 9/4/1 36/3/1 35/2/1
f 9/4/1 8/1/1 36/3/1
f 25/4/1 35/3/1 23/2/1
f 25/4/1 9/1/1 35/3/1
